<svg width="24" height="24" viewBox="0 0 24 24" aria-hidden="true" fill="none" stroke="currentColor" stroke-width="2">
  <path d="M21 15a2 2 0 0 1-2 2H7l-4 4V5a2 2 0 0 1 2-2h14a2 2 0 0 1 2 2z"></path>
  <g transform="translate(12, 12) scale(0.6)" fill="currentColor">
    <path d="M10 2h4v3l2 .8 2.1-2.1 2.8 2.8-2.1 2.1.8 2H23v4h-3l-.8 2 2.1 2.1-2.8 2.8-2.1-2.1-2 .8V23h-4v-3l-2-.8-2.1 2.1-2.8-2.8 2.1-2.1-.8-2H1v-4h3l.8-2-2.1-2.1 2.8-2.8 2.1 2.1 2-.8zm2 6a4 4 0 1 0 0 8 4 4 0 0 0 0-8z"></path>
  </g>
</svg>