<svg width="24" height="24" viewBox="0 0 24 24" aria-hidden="true" fill="none" stroke="currentColor" stroke-width="2">
  <path d="M9.5 2A2.5 2.5 0 0 1 12 4.5v15a2.5 2.5 0 0 1-4.96.44 2.5 2.5 0 0 1-2.96-3.08 3 3 0 0 1-.34-5.58 2.5 2.5 0 0 1 1.32-4.24 2.5 2.5 0 0 1 1.98-3A2.5 2.5 0 0 1 9.5 2M12 4.5v15M12 4.5a2.5 2.5 0 0 0 2.5-2.5M12 4.5a2.5 2.5 0 0 1 2.5-2.5M12 19.5a2.5 2.5 0 0 0 2.5 2.5M12 19.5a2.5 2.5 0 0 1 2.5 2.5M14.5 2a2.5 2.5 0 0 1 2.5 2.5M14.5 2a2.5 2.5 0 0 0-2.5 2.5M14.5 22a2.5 2.5 0 0 1 2.5-2.5M14.5 22a2.5 2.5 0 0 0-2.5-2.5M17 4.5a2.5 2.5 0 0 1 2.5 2.5M17 4.5a2.5 2.5 0 0 0-2.5 2.5M17 19.5a2.5 2.5 0 0 1 2.5-2.5M17 19.5a2.5 2.5 0 0 0-2.5-2.5"></path>
</svg>