<svg viewBox="0 0 24 24" xmlns="http://www.w3.org/2000/svg" fill="currentColor">
  <path d="M12 7.5a5 5 0 0 1 5 5c0 .57-.1 1.11-.28 1.62l2.92 2.92c1.51-1.26 2.7-2.89 3.44-4.54C21.27 8.11 17 5 12 5c-1.27 0-2.49.2-3.64.57l2.16 2.16c.47-.15.97-.23 1.48-.23zM3.71 4.56 2.29 5.97l2.06 2.06C2.94 9.13 1.83 10.69 1 12.5 2.73 16.89 7 20 12 20c1.52 0 2.98-.29 4.32-.82l2.79 2.79 1.41-1.41L3.71 4.56zM9.51 10.36l1.58 1.58c-.05.18-.09.37-.09.56a2 2 0 0 0 2 2c.19 0 .38-.04.56-.09l1.58 1.58c-.63.31-1.34.51-2.14.51a4 4 0 0 1-4-4c0-.8.2-1.51.51-2.14z"/>
</svg>